<svg width="1280" height="1280" viewBox="0 0 1280 1280" fill="none" xmlns="http://www.w3.org/2000/svg">
<rect width="1280" height="1280" fill="white"/>
<path d="M689.044 338C802.423 338 894.334 429.909 894.334 543.284C894.334 656.659 802.423 748.568 689.044 748.568H587.013L690.725 927.93C708.81 959.207 708.928 997.735 691.035 1029.12L612.009 1167.74L450.154 886.922C366.709 742.145 471.205 561.313 638.312 561.313H663.242C670.947 559.604 676.709 552.732 676.709 544.513C676.709 535.009 669.004 527.304 659.499 527.304H327.281C274.516 527.304 225.77 499.122 199.442 453.396L133 338L689.044 338Z" fill="black"/>
<path d="M612.411 1167.75L450.556 886.934C367.111 742.156 471.607 561.325 638.715 561.325H657.485C530.951 593.449 557.607 696.952 587.416 748.58L691.127 927.942C709.212 959.219 709.33 997.746 691.437 1029.13L612.411 1167.75Z" fill="black"/>
<path d="M954.447 674.031C928.155 719.89 879.334 748.175 826.473 748.175H775.951C850.507 716.505 904.228 645.33 910.841 560.92H1019.3L954.447 674.031ZM1081.52 453.413C1055.19 499.138 1006.44 527.32 953.68 527.32H910.963C904.896 441.827 850.524 369.682 774.98 338.017H1147.96L1081.52 453.413Z" fill="black"/>
</svg>
