<svg width="2400" height="1280" viewBox="0 0 2400 1280" fill="none" xmlns="http://www.w3.org/2000/svg">
<rect width="2400" height="1280" fill="white"/>
<path d="M455.553 408C519.08 408 570.578 459.497 570.578 523.021C570.578 586.546 519.08 638.043 455.553 638.043H398.385L456.495 738.54C466.628 756.064 466.695 777.651 456.669 795.238L412.39 872.906L321.703 715.563C274.948 634.443 333.498 533.123 427.128 533.123H441.097C445.414 532.165 448.642 528.315 448.642 523.71C448.642 518.385 444.325 514.068 438.999 514.068H252.856C223.292 514.068 195.979 498.277 181.228 472.657L144 408L455.553 408Z" fill="black"/>
<path d="M412.615 872.913L321.928 715.569C275.173 634.45 333.723 533.129 427.353 533.129H437.87C366.973 551.129 381.909 609.122 398.61 638.049L456.72 738.546C466.853 756.071 466.919 777.658 456.894 795.244L412.615 872.913Z" fill="black"/>
<path d="M604.259 596.279C589.528 621.974 562.173 637.822 532.555 637.822H504.248C546.021 620.078 576.121 580.198 579.827 532.903H640.594L604.259 596.279ZM675.458 472.666C660.706 498.286 633.394 514.077 603.829 514.077H579.895C576.495 466.174 546.031 425.751 503.703 408.009H712.686L675.458 472.666Z" fill="black"/>
<path d="M2187.34 676.416L2167.4 628.104H2035.11L2015.18 676.416H1948.08L2068.47 408.014H2135.57L2255.2 676.416H2187.34ZM2101.83 468.213L2057.74 574.04H2145.16L2101.83 468.213Z" fill="black"/>
<path d="M1858.99 539.531L1951.4 676.416H1875.09L1844.03 629.638L1817.58 586.31L1791.89 629.254L1760.83 676.416H1683.76L1774.63 542.215L1688.75 408.014H1762.75L1791.12 453.259L1816.43 496.97L1842.88 453.259L1872.03 408.014H1946.41L1858.99 539.531Z" fill="black"/>
<path d="M1519.26 623.503H1667.27V676.416H1458.3V408.014H1663.05V460.544H1519.26V514.992H1655.38V565.605H1519.26V623.503Z" fill="black"/>
<path d="M1361.57 408.014H1430.97L1320.54 676.416H1254.21L1143.78 408.014H1213.18L1249.23 499.271L1287.19 603.564L1325.91 499.271L1361.57 408.014Z" fill="black"/>
<path d="M1053.15 408.014H1116.03V676.416H1053.15V408.014Z" fill="black"/>
<path d="M874.993 587.844H838.567V676.416H775.685V408.014H906.435C925.862 408.014 942.861 411.848 957.431 419.517C972.001 426.93 983.249 437.538 991.173 451.342C999.097 465.145 1003.06 480.994 1003.06 498.887C1003.06 519.337 997.691 536.847 986.955 551.418C976.475 565.988 961.521 576.341 942.094 582.476L1018.01 676.416H943.244L874.993 587.844ZM940.944 499.654C940.944 487.64 937.237 478.31 929.824 471.664C922.667 465.018 912.442 461.695 899.15 461.695H838.184V537.231H899.15C912.697 537.231 923.05 534.035 930.207 527.645C937.365 520.999 940.944 511.669 940.944 499.654Z" fill="black"/>
<path d="M775.685 872.429V732.89H876.569V754.618H801.35V872.429H775.685ZM799.178 819.005V797.078H868.08V819.005H799.178Z" fill="black"/>
<path d="M887.54 872.429V732.89H913.454V850.501H986.414V872.429H887.54Z" fill="black"/>
<path d="M1057.04 732.378C1069.96 732.378 1081.75 735.409 1092.43 741.472C1103.23 747.402 1111.73 755.705 1117.93 766.38C1124.12 777.055 1127.22 789.114 1127.22 802.557C1127.22 816 1124.12 828.125 1117.93 838.932C1111.73 849.607 1103.23 857.976 1092.43 864.038C1081.75 869.969 1069.96 872.934 1057.04 872.934C1044.26 872.934 1032.46 869.968 1021.65 864.038C1010.98 857.976 1002.48 849.607 996.153 838.932C989.958 828.125 986.861 816 986.861 802.557C986.861 789.114 989.958 777.055 996.153 766.38C1002.48 755.705 1010.98 747.402 1021.65 741.472C1032.46 735.409 1044.26 732.378 1057.04 732.378ZM1057.29 753.128C1049.6 776.515 1031.25 794.858 1007.86 802.549C1031.25 810.241 1049.6 828.584 1057.29 851.971C1064.98 828.584 1083.32 810.241 1106.71 802.549C1083.32 794.858 1064.98 776.515 1057.29 753.128Z" fill="black"/>
<path d="M1170.68 872.429L1124.44 732.89H1151.35L1192.61 859.073H1179.26L1222.11 732.89H1246.04L1287.7 859.073H1274.74L1317 732.89H1341.72L1295.47 872.429H1267.96L1229.89 758.605H1237.07L1198.39 872.429H1170.68Z" fill="black"/>
</svg>
